<?xml version="1.0" encoding="UTF-8"?>
<svg id="Ebene_1" xmlns="http://www.w3.org/2000/svg" version="1.1" viewBox="0 0 2297 1268">
  <!-- Generator: Adobe Illustrator 29.2.1, SVG Export Plug-In . SVG Version: 2.1.0 Build 116)  -->
  <defs>
    <style>
      .st0 {
        stroke: #366;
        stroke-width: 3px;
      }

      .st0, .st1 {
        fill: none;
      }

      .st1 {
        stroke: #a9a9a9;
        stroke-dasharray: 2 5;
      }

      .st2 {
        font-family: ArialMT, Arial;
        font-size: 6.2px;
        isolation: isolate;
      }
    </style>
  </defs>
  <line class="st1" x1="1091.8" y1="855.7" x2="1573.6" y2="855.7"/>
  <line class="st1" x1="1091" y1="868.3" x2="1573.6" y2="868.3"/>
  <line class="st1" x1="1078.6" y1="874.6" x2="1573.6" y2="874.6"/>
  <line class="st1" x1="1086.4" y1="862" x2="1573.6" y2="862"/>
  <line class="st1" x1="1551" y1="887.1" x2="1573.6" y2="887.1"/>
  <path class="st0" d="M1523.6,884v-3.1h46.3"/>
  <path class="st0" d="M1523.6,884v3.1h23.8"/>
  <path class="st0" d="M1085.5,858.9v-3.1h2.7"/>
  <path class="st0" d="M1085.5,858.9v3.1h-2.7"/>
  <path class="st0" d="M1065.8,871.4v-3.1h21.5"/>
  <path class="st0" d="M1065.8,871.4v3.1h9.2"/>
  <path class="st0" d="M1035.2,865.2v-2.3c0-2.7,1.3-4,4-4h46.3"/>
  <path class="st0" d="M1035.2,865.2v2.3c0,2.7,1.3,4,4,4h26.6"/>
  <path class="st0" d="M959.4,874.6v-5.4c0-2.7,1.3-4,4-4h71.8"/>
  <path class="st0" d="M959.4,874.6v5.4c0,2.7,1.3,4,4,4h560.2"/>
  <path class="st0" d="M864.4,921.5v-42.9c0-2.7,1.3-4,4-4h91"/>
  <circle cx="1088.2" cy="855.7" r="1"/>
  <circle cx="1087.4" cy="868.3" r="1"/>
  <circle cx="1075" cy="874.6" r="1"/>
  <circle cx="1082.8" cy="862" r="1"/>
  <circle cx="1569.9" cy="880.8" r="1"/>
  <circle cx="1547.4" cy="887.1" r="1"/>
  <circle cx="1523.6" cy="884" r=".5"/>
  <circle cx="1104.4" cy="904" r=".5"/>
  <circle cx="1085.5" cy="858.9" r=".5"/>
  <circle cx="1065.8" cy="871.4" r=".5"/>
  <circle cx="1035.2" cy="865.2" r=".5"/>
  <circle cx="959.4" cy="874.6" r=".5"/>
  <circle cx="864.4" cy="921.5" r=".5"/>
  <circle cx="702.4" cy="942" r=".5"/>
  <text class="st2" transform="translate(1577.2 858.5)"><tspan x="0" y="0">W3_1_DE2_13</tspan></text>
  <text class="st2" transform="translate(1577.2 896.2)"><tspan x="0" y="0">Br2_1_BE1_14</tspan></text>
  <text class="st2" transform="translate(1577.2 871)"><tspan x="0" y="0">P7_0_0_13</tspan></text>
  <text class="st2" transform="translate(1577.2 877.3)"><tspan x="0" y="0">L4_0_0_13</tspan></text>
  <text class="st2" transform="translate(1577.2 864.8)"><tspan x="0" y="0">E1_1_DE2_14</tspan></text>
  <text class="st2" transform="translate(1577.2 902.4)"><tspan x="0" y="0">Ve_0_0_13</tspan></text>
  <text class="st2" transform="translate(1577.2 883.6)"><tspan x="0" y="0">Ny3_5_IT2_14</tspan></text>
  <text class="st2" transform="translate(1577.2 852.2)"><tspan x="0" y="0">V_1_IT1_13</tspan></text>
  <text class="st2" transform="translate(1577.2 889.9)"><tspan x="0" y="0">Ba1_5_IT2_14</tspan></text>
</svg>